<mxfile host="app.diagrams.net" modified="2024-01-02T06:09:15.413Z" agent="Mozilla/5.0 (Windows NT 10.0; Win64; x64; rv:123.0) Gecko/20100101 Firefox/123.0" version="22.1.16" etag="X2wg5q_qsbQols8fN3_d" type="github">
  <diagram name="第 1 页" id="0wLPf3BnWC_a-4BO3Uyz">
    <mxGraphModel>
      <root>
        <mxCell id="0" />
        <mxCell id="1" parent="0" />
      </root>
    </mxGraphModel>
  </diagram>
</mxfile>
